<?xml version="1.0" ?><svg height="20px" version="1.1" viewBox="0 0 48 48" width="26px" xmlns="http://www.w3.org/2000/svg" xmlns:xlink="http://www.w3.org/1999/xlink"><title/><desc/><g fill="none" fill-rule="evenodd" id="Page-1" stroke="none" stroke-width="1"><g id="Artboard-Copy" transform="translate(-47.000000, -369.000000)"><path d="M57.1875,379 C55.5425,379 54.1875,380.227 54.0195,381.801 C54.0055,381.908 53.9995,382.02 53.9995,382.133 L71.0005,392.93 L88.0005,382.133 C88.0005,382.016 87.9945,381.9 87.9805,381.785 C87.8055,380.219 86.4535,379 84.8125,379 L57.1875,379 Z M71.0005,395.715 L53.9995,384.92 L53.9995,401.867 C53.9995,403.598 55.4265,405 57.1875,405 L84.8125,405 C86.5735,405 88.0005,403.598 88.0005,401.867 L88.0005,384.92 L71.0005,395.715 Z" fill="#99b8e9" id="mail1"/><g id="slices" transform="translate(47.000000, 9.000000)"/></g></g></svg>