<?xml version="1.0" ?><!DOCTYPE svg  PUBLIC '-//W3C//DTD SVG 1.1//EN'  'http://www.w3.org/Graphics/SVG/1.1/DTD/svg11.dtd'><svg enable-background="new 0 0 96 96" height="100px" id="Layer_1" version="1.1" viewBox="0 0 96 96" width="100px" xml:space="preserve" xmlns="http://www.w3.org/2000/svg" xmlns:xlink="http://www.w3.org/1999/xlink"><g><g><g><path d="M69.42,48.307     c0.871-3.115,1.494-5.128,2.193-8.83c0.742-3.928-2.635-5.887-5.885-5.887H31.648l0.453,5.887c0,0,0.873,7.502,1.409,11.77     c0.537,4.269,2.636,5.887,5.887,5.887c0,0,20.382-1.623,23.973-2.356c2.383-0.486,3.771-1.396,4.717-2.96" fill="none" stroke="#ffffff" stroke-linecap="round" stroke-miterlimit="10" stroke-width="2"/></g><path d="M32.025,38.489    c0,0-0.477-5.343-0.773-9.095c-0.297-3.753-2.339-5.225-5.225-5.225c-0.612,0-1.199,0.104-1.745,0.298" fill="none" stroke="#ffffff" stroke-linecap="round" stroke-miterlimit="10" stroke-width="2"/><path d="M39.274,57.134    c-1.925,0-3.483,1.559-3.483,3.482c0,1.926,1.559,3.484,3.483,3.484H67.77" fill="none" stroke="#ffffff" stroke-linecap="round" stroke-miterlimit="10" stroke-width="2"/><circle cx="41.646" cy="69.733" fill="none" r="2.098" stroke="#ffffff" stroke-linecap="round" stroke-miterlimit="10" stroke-width="2"/><circle cx="63.315" cy="69.733" fill="none" r="2.099" stroke="#ffffff" stroke-linecap="round" stroke-miterlimit="10" stroke-width="2"/></g><g><line fill="none" stroke="#ffffff" stroke-linecap="round" stroke-miterlimit="10" stroke-width="2" x1="50.43" x2="50.43" y1="40.661" y2="49.124"/><line fill="none" stroke="#ffffff" stroke-linecap="round" stroke-miterlimit="10" stroke-width="2" x1="42.181" x2="42.181" y1="40.661" y2="49.124"/><line fill="none" stroke="#ffffff" stroke-linecap="round" stroke-miterlimit="10" stroke-width="2" x1="58.679" x2="58.679" y1="40.661" y2="49.124"/></g></g></svg>